<?xml version="1.0" encoding="utf-8"?>
<svg viewBox="134.263 160.867 93.653 72.496" xmlns="http://www.w3.org/2000/svg">
  <g id="layer1" transform="matrix(1, 0, 0, 1, 82.08168, 113.663544)">
    <path style="fill:#1c287c;fill-opacity:0.12857145;stroke-width:0.57844657" d="M 143.18856,61.697224 A 11.881752,12.494213 0 0 1 131.30681,74.191437 11.881752,12.494213 0 0 1 119.42506,61.697224 11.881752,12.494213 0 0 1 131.30681,49.203011 11.881752,12.494213 0 0 1 143.18856,61.697224 Z" id="ellipse4641"/>
    <path style="fill:#1c287c;fill-opacity:0.12857145;stroke-width:0.57844657" d="M 75.945221,62.108795 A 11.881752,12.494213 0 0 1 64.063469,74.603008 11.881752,12.494213 0 0 1 52.181717,62.108795 11.881752,12.494213 0 0 1 64.063469,49.614582 11.881752,12.494213 0 0 1 75.945221,62.108795 Z" id="ellipse4643"/>
    <path style="fill:#1c287c;fill-opacity:0.12857145;stroke-width:0.48786756" d="m 73.299379,62.265579 a 8.8194447,8.3294744 0 0 1 -8.819444,8.329475 8.8194447,8.3294744 0 0 1 -8.819445,-8.329475 8.8194447,8.3294744 0 0 1 8.819445,-8.329474 8.8194447,8.3294744 0 0 1 8.819444,8.329474 z" id="ellipse4645"/>
    <path style="fill:#1c287c;fill-opacity:0.12857145;stroke-width:0.5019632" d="m 139.69021,61.329742 a 8.6969519,8.9419365 0 0 1 -8.69695,8.941937 8.6969519,8.9419365 0 0 1 -8.69696,-8.941937 8.6969519,8.9419365 0 0 1 8.69696,-8.941936 8.6969519,8.9419365 0 0 1 8.69695,8.941936 z" id="ellipse4647"/>
    <path style="fill:#1c287c;fill-opacity:0.12857145;stroke-width:0.26458332" d="M 137.52454,83.187263 A 38.099998,35.983334 0 0 1 99.424538,119.1706 38.099998,35.983334 0 0 1 61.324539,83.187263 38.099998,35.983334 0 0 1 99.424538,47.20393 38.099998,35.983334 0 0 1 137.52454,83.187263 Z" id="ellipse4649"/>
    <path style="fill:#1c287c;fill-opacity:0.12857145;stroke-width:0.26458332" d="m 90.556095,74.005249 a 4.2333331,4.2333331 0 0 1 -4.233333,4.233333 4.2333331,4.2333331 0 0 1 -4.233334,-4.233333 4.2333331,4.2333331 0 0 1 4.233334,-4.233333 4.2333331,4.2333331 0 0 1 4.233333,4.233333 z" id="circle4651"/>
    <path style="fill:#1c287c;fill-opacity:0.12857145;stroke-width:0.26458332" d="m 114.77037,73.68187 a 4.2333331,4.2333331 0 0 1 -4.23333,4.233333 4.2333331,4.2333331 0 0 1 -4.23333,-4.233333 4.2333331,4.2333331 0 0 1 4.23333,-4.233334 4.2333331,4.2333331 0 0 1 4.23333,4.233334 z" id="circle4653"/>
    <path id="path4655" d="m 115.29954,92.183103 c 0,12.162767 -7.5835,22.022647 -16.938243,22.022647 -9.354726,0 -16.93823,-9.85988 -16.938231,-22.022647 0,-12.162786 9.151851,-13.866128 18.506571,-13.866128 9.354743,-10e-7 15.369903,1.70334 15.369903,13.866128 z" style="fill:#1c287c;fill-opacity:0.12857145;stroke-width:0.40717199"/>
    <path id="path4657" d="m 87.253702,98.003935 c 9.384485,5.545555 16.933258,4.047715 23.817448,0 0.25876,-0.152131 0.52422,0.269741 0.52422,0.604788 v 0.393492 c 0,0.335054 -0.26644,0.450464 -0.52422,0.604789 -8.8906,5.322536 -16.683673,4.505286 -23.817448,0 -0.254743,-0.160879 -0.524217,-0.269735 -0.524217,-0.604789 v -0.393492 c 0,-0.335047 0.265736,-0.757532 0.524217,-0.604788 z" style="fill:#1c287c;fill-opacity:0.12857145;stroke-width:0.04482814"/>
    <path style="fill:#1c287c;fill-opacity:0.12857145;stroke-width:0.39503714" d="m 108.57716,88.11145 a 9.5788965,3.2582946 0 0 1 -9.578892,3.258295 9.5788965,3.2582946 0 0 1 -9.578896,-3.258295 9.5788965,3.2582946 0 0 1 9.578896,-3.258294 9.5788965,3.2582946 0 0 1 9.578892,3.258294 z" id="ellipse4659"/>
    <path style="fill:#0065d2;fill-opacity:1;stroke-width:0.57844657" d="M 145.8344,62.226391 A 11.881752,12.494213 0 0 1 133.95265,74.720604 11.881752,12.494213 0 0 1 122.0709,62.226391 11.881752,12.494213 0 0 1 133.95265,49.732178 11.881752,12.494213 0 0 1 145.8344,62.226391 Z" id="ellipse4572"/>
    <path style="fill:#0065d2;fill-opacity:1;stroke-width:0.57844657" d="M 78.591049,62.637962 A 11.881752,12.494213 0 0 1 66.709297,75.132175 11.881752,12.494213 0 0 1 54.827545,62.637962 11.881752,12.494213 0 0 1 66.709297,50.143749 11.881752,12.494213 0 0 1 78.591049,62.637962 Z" id="path4561"/>
    <path style="fill:#0000d2;fill-opacity:1;stroke-width:0.48786756" d="m 75.945208,62.794746 a 8.8194447,8.3294744 0 0 1 -8.819445,8.329475 8.8194447,8.3294744 0 0 1 -8.819445,-8.329475 8.8194447,8.3294744 0 0 1 8.819445,-8.329474 8.8194447,8.3294744 0 0 1 8.819445,8.329474 z" id="path4574"/>
    <path style="fill:#0000d2;fill-opacity:1;stroke-width:0.5019632" d="m 142.33605,61.85891 a 8.6969519,8.9419365 0 0 1 -8.69695,8.941936 8.6969519,8.9419365 0 0 1 -8.69695,-8.941936 8.6969519,8.9419365 0 0 1 8.69695,-8.941937 8.6969519,8.9419365 0 0 1 8.69695,8.941937 z" id="path4574-3"/>
    <path style="fill:#0065d2;fill-opacity:1;stroke-width:0.26458332" d="m 140.17037,83.716431 a 38.099998,35.983334 0 0 1 -38.1,35.983329 38.099998,35.983334 0 0 1 -38.099995,-35.983329 38.099998,35.983334 0 0 1 38.099995,-35.983334 38.099998,35.983334 0 0 1 38.1,35.983334 z" id="path10"/>
    <path style="fill:#000000;fill-opacity:1;stroke-width:0.26458332" d="m 93.201923,74.534416 a 4.2333331,4.2333331 0 0 1 -4.233333,4.233333 4.2333331,4.2333331 0 0 1 -4.233333,-4.233333 4.2333331,4.2333331 0 0 1 4.233333,-4.233333 4.2333331,4.2333331 0 0 1 4.233333,4.233333 z" id="path4520"/>
    <path style="fill:#000000;fill-opacity:1;stroke-width:0.26458332" d="m 117.4162,74.211037 a 4.2333331,4.2333331 0 0 1 -4.23333,4.233333 4.2333331,4.2333331 0 0 1 -4.23333,-4.233333 4.2333331,4.2333331 0 0 1 4.23333,-4.233333 4.2333331,4.2333331 0 0 1 4.23333,4.233333 z" id="circle4531"/>
    <path style="fill:#ffffff;fill-opacity:1;stroke-width:0.40717199" d="m 117.94537,92.71227 c 0,12.16277 -7.5835,22.02265 -16.93824,22.02265 -9.354726,0 -16.93823,-9.85988 -16.938231,-22.02265 0,-12.162786 9.151851,-13.866128 18.506571,-13.866128 9.35474,-10e-7 15.3699,1.703339 15.3699,13.866128 z" id="path4543"/>
    <path style="fill:#000000;fill-opacity:1;stroke-width:0.04482814" d="m 89.899535,98.533101 c 9.384485,5.545559 16.933255,4.047709 23.817445,0 0.25876,-0.15213 0.52422,0.269741 0.52422,0.604788 v 0.393492 c 0,0.335054 -0.26644,0.450464 -0.52422,0.604789 -8.8906,5.32254 -16.68367,4.50529 -23.817445,0 -0.254743,-0.160879 -0.524217,-0.269735 -0.524217,-0.604789 v -0.393492 c 0,-0.335047 0.265736,-0.757531 0.524217,-0.604788 z" id="rect4535"/>
    <path style="fill:#0065d2;fill-opacity:1;stroke-width:0.39503714" d="m 111.22299,88.640617 a 9.5788965,3.2582946 0 0 1 -9.57889,3.258295 9.5788965,3.2582946 0 0 1 -9.5789,-3.258295 9.5788965,3.2582946 0 0 1 9.5789,-3.258294 9.5788965,3.2582946 0 0 1 9.57889,3.258294 z" id="path4546"/>
  </g>
</svg>