<svg xmlns="http://www.w3.org/2000/svg" data-name="Layer 1" viewBox="0 0 100 125" x="0px" y="0px"><title>49</title><path d="M95,19.55762v5.47363H91.40039V19.55762a.141.141,0,0,0-.14062-.14063H45.26172V15.81738H91.25977A3.74431,3.74431,0,0,1,95,19.55762ZM45.6543,42.54053h8.69043a2.76238,2.76238,0,0,1,2.75976,2.75879V55.69385h3.627A2.75918,2.75918,0,0,1,62.876,60.189L52.16016,73.42383a2.77954,2.77954,0,0,1-4.31934,0L37.124,60.189a2.75918,2.75918,0,0,1,2.14453-4.49511h3.627V45.29932A2.76154,2.76154,0,0,1,45.6543,42.54053Zm-.959,16.75293H41.03223L50,70.37012l8.96777-11.07666H55.30469a1.79964,1.79964,0,0,1-1.79981-1.79981V46.14014H46.49512V57.49365A1.79964,1.79964,0,0,1,44.69531,59.29346ZM95,31.83154V83.22217a3.7443,3.7443,0,0,1-3.74023,3.74023H8.74023A3.7443,3.7443,0,0,1,5,83.22217V16.77783A3.7443,3.7443,0,0,1,8.74023,13.0376H36.0498a1.79935,1.79935,0,0,1,1.56739.91455l9.083,16.07959h46.5A1.79962,1.79962,0,0,1,95,31.83154Zm-3.59961,1.79981h-45.751A1.79935,1.79935,0,0,1,44.082,32.7168L34.999,16.63721H8.74023a.141.141,0,0,0-.14062.14062V83.22217a.141.141,0,0,0,.14062.14062H91.25977a.141.141,0,0,0,.14062-.14062Z"/><text x="0" y="115" fill="#000000" font-size="5px" font-weight="bold" font-family="'Helvetica Neue', Helvetica, Arial-Unicode, Arial, Sans-serif">Created by TTHNga</text><text x="0" y="120" fill="#000000" font-size="5px" font-weight="bold" font-family="'Helvetica Neue', Helvetica, Arial-Unicode, Arial, Sans-serif">from the Noun Project</text></svg>