<svg xmlns:dc="http://purl.org/dc/elements/1.1/" xmlns:cc="http://creativecommons.org/ns#" xmlns:rdf="http://www.w3.org/1999/02/22-rdf-syntax-ns#" xmlns:svg="http://www.w3.org/2000/svg" xmlns="http://www.w3.org/2000/svg" xmlns:sodipodi="http://sodipodi.sourceforge.net/DTD/sodipodi-0.dtd" xmlns:inkscape="http://www.inkscape.org/namespaces/inkscape" version="1.1" x="0px" y="0px" viewBox="0 0 100 125"><g transform="translate(0,-952.36218)"><path style="text-indent:0;text-transform:none;direction:ltr;block-progression:tb;baseline-shift:baseline;color:#000000;enable-background:accumulate;" d="m 68.9688,958.36216 c 1.1046,0 2,0.8954 2,2 l 0,12.28125 c 3.4327,0.89897 6,4.01733 6,7.71875 0,4.3945 -3.6054,8.00005 -8,8.00005 -4.3946,0 -8,-3.60555 -8,-8.00005 0,-3.70142 2.5672,-6.81978 6,-7.71875 l 0,-12.28125 c 0,-1.1046 0.8953,-2 2,-2 z m -38,0 c 1.1046,0 2,0.8954 2,2 l 0,12.28125 c 3.4327,0.89897 6,4.01733 6,7.71875 0,4.3945 -3.6054,8.00005 -8,8.00005 -4.3946,0 -8,-3.60555 -8,-8.00005 0,-3.70142 2.5672,-6.81978 6,-7.71875 l 0,-12.28125 c 0,-1.1046 0.8953,-2 2,-2 z m 52,6 c 5.5211,0 10.0312,4.51015 10.0312,10.03125 l 0,61.93749 c 0,5.521 -4.5101,10.0313 -10.0312,10.0313 l -65.9375,0 c -5.5211,0 -10.0312998,-4.5103 -10.0312998,-10.0313 l 0,-61.93749 c 0,-5.52111 4.5101998,-10.03125 10.0312998,-10.03125 l 5.9687,0 c 1.0566,-0.015 2.0313,0.9433 2.0313,2 0,1.05669 -0.9747,2.0149 -2.0313,2 l -5.9687,0 c -3.3704,0 -6.0313,2.66075 -6.0313,6.03125 l 0,17.9688 78,0 0,-17.9688 c 0,-3.3705 -2.6606,-6.03125 -6.0312,-6.03125 l -5.9688,0 c -1.0566,0.015 -2.0312,-0.94331 -2.0312,-2 0,-1.0567 0.9746,-2.0149 2.0312,-2 z m -21.9688,0 c 1.1046,0 2,0.8954 2,2 0,1.1046 -0.8954,2 -2,2 l -22,0 c -1.1046,0 -2,-0.8954 -2,-2 0,-1.1046 0.8954,-2 2,-2 z m 7.9688,12 c -2.2328,0 -4,1.7671 -4,4 0,2.2328 1.7672,4 4,4 2.2328,0 4,-1.7672 4,-4 0,-2.2329 -1.7672,-4 -4,-4 z m -38,0 c -2.2328,0 -4,1.7671 -4,4 0,2.2328 1.7672,4 4,4 2.2328,0 4,-1.7672 4,-4 0,-2.2329 -1.7672,-4 -4,-4 z M 89,996.36221 l -78,0 0,39.96869 c 0,3.3705 2.6609,6.0313 6.0313,6.0313 l 65.9375,0 c 3.3706,0 6.0312,-2.6608 6.0312,-6.0313 z" fill="#000000" fill-opacity="1" stroke="none" marker="none" visibility="visible" display="inline" overflow="visible"/></g><text x="0" y="115" fill="#000000" font-size="5px" font-weight="bold" font-family="'Helvetica Neue', Helvetica, Arial-Unicode, Arial, Sans-serif">Created by iconsphere</text><text x="0" y="120" fill="#000000" font-size="5px" font-weight="bold" font-family="'Helvetica Neue', Helvetica, Arial-Unicode, Arial, Sans-serif">from the Noun Project</text></svg>