<svg xmlns="http://www.w3.org/2000/svg" xmlns:xlink="http://www.w3.org/1999/xlink" version="1.1" x="0px" y="0px" viewBox="0 0 64 80" enable-background="new 0 0 64 64" xml:space="preserve"><g><path d="M61,47h-3v-4V15v-3.1430664C58,10.2817383,56.7182617,9,55.1430664,9H8.8569336C7.2817383,9,6,10.2817383,6,11.8569336V15   v28v4H3c-0.5522461,0-1,0.4477539-1,1v6c0,0.5522461,0.4477539,1,1,1h58c0.5522461,0,1-0.4477539,1-1v-6   C62,47.4477539,61.5522461,47,61,47z M36,43v-1h6v1H36z M44,41v-1h8v3h-8V41z M53,38H43c-0.5522461,0-1,0.4477539-1,1v1h-7   c-0.5522461,0-1,0.4477539-1,1v2H8V15h48v28h-2v-4C54,38.4477539,53.5522461,38,53,38z M8,11.8569336   C8,11.3842773,8.3842773,11,8.8569336,11h46.2861328C55.6157227,11,56,11.3842773,56,11.8569336V13H8V11.8569336z M8,45h27h8h10h3   v2H8V45z M60,53H4v-4h3h50h3V53z"/><path d="M45,22H29c-0.4038086,0-0.7675781,0.2426758-0.9228516,0.6152344L23.7954102,32.890625l-2.9633789-4.4453125   c-0.3061523-0.4599609-0.9282227-0.5849609-1.3867188-0.2773438c-0.4594727,0.3061523-0.5834961,0.9272461-0.2773438,1.3867188l4,6   C23.3544922,35.8344727,23.6674805,36,24,36c0.0317383,0,0.0639648-0.0014648,0.0966797-0.0048828   c0.3666992-0.0351563,0.6845703-0.2700195,0.8261719-0.6103516L29.6665039,24H45c0.5522461,0,1-0.4477539,1-1S45.5522461,22,45,22z   "/><path d="M41,28h-6c-0.5522461,0-1,0.4477539-1,1s0.4477539,1,1,1h6c0.5522461,0,1-0.4477539,1-1S41.5522461,28,41,28z"/><path d="M41,32h-6c-0.5522461,0-1,0.4477539-1,1s0.4477539,1,1,1h6c0.5522461,0,1-0.4477539,1-1S41.5522461,32,41,32z"/></g><text x="0" y="79" fill="#000000" font-size="5px" font-weight="bold" font-family="'Helvetica Neue', Helvetica, Arial-Unicode, Arial, Sans-serif">Created by Anita Erica</text><text x="0" y="84" fill="#000000" font-size="5px" font-weight="bold" font-family="'Helvetica Neue', Helvetica, Arial-Unicode, Arial, Sans-serif">from the Noun Project</text></svg>