<svg xmlns="http://www.w3.org/2000/svg" xmlns:xlink="http://www.w3.org/1999/xlink" viewBox="0 0 40 51.25" version="1.1" x="0px" y="0px"><title>settings</title><desc>Created with Sketch.</desc><g stroke="none" stroke-width="1" fill="none" fill-rule="evenodd"><g transform="translate(-320.000000, -235.000000)" fill="#000000"><path d="M342.685912,260.996605 C342.58736,261.057826 342.471069,261.107198 342.357734,261.133859 C337.903197,262.190415 335.1743,259.825507 334.192725,257.479361 C333.210164,255.133215 333.437819,251.526114 337.312872,249.082212 C337.409453,249.020003 337.525744,248.971619 337.638093,248.944958 C338.392999,248.765245 339.095673,248.684275 339.751042,248.684275 C342.96777,248.684275 344.991036,250.647297 345.807045,252.597481 C346.790591,254.945602 346.562936,258.553691 342.685912,260.996605 M359.015044,258.425127 L357.043024,256.65663 C356.834095,256.469017 356.713862,256.201422 356.713862,255.920991 L356.713862,253.98858 C356.713862,253.711111 356.831138,253.445491 357.036126,253.258865 L358.984493,251.480495 C359.905952,250.638212 360.201607,249.298263 359.718703,248.144938 L358.725302,245.773119 C358.24437,244.620782 357.095257,243.896004 355.835766,243.961175 L353.126579,244.112253 C352.841765,244.132001 352.535269,244.00956 352.334223,243.782449 L351.041225,242.324995 C350.87073,242.131458 350.782034,241.881637 350.79386,241.622929 L350.913108,239.072383 C350.970268,237.823278 350.233101,236.666004 349.078075,236.193022 L346.701993,235.219411 C345.544996,234.747417 344.211591,235.053522 343.379814,235.985661 L341.613768,237.963494 C341.427505,238.171842 341.16043,238.291322 340.880543,238.291322 L338.951886,238.291322 C338.674955,238.291322 338.408866,238.173817 338.223588,237.969418 L336.448672,236.017259 C335.609011,235.093019 334.270679,234.797776 333.119595,235.280632 L330.751397,236.275967 C329.601299,236.75981 328.874973,237.923009 328.944944,239.172114 L329.090801,241.820416 C329.106569,242.100847 329.002104,242.374367 328.804015,242.572841 L327.439074,243.939452 C327.243942,244.135951 326.97391,244.250494 326.69698,244.227783 L324.063678,244.104353 C322.820941,244.049057 321.663944,244.785684 321.190895,245.942958 L320.219175,248.323664 C319.746127,249.480938 320.054594,250.818913 320.983937,251.652308 L322.956942,253.420805 C323.165872,253.60743 323.285119,253.876012 323.285119,254.156444 L323.285119,256.089842 C323.285119,256.366324 323.167843,256.631944 322.962855,256.819557 L321.015473,258.597928 C320.093029,259.439223 319.797374,260.78016 320.280277,261.932497 L321.273679,264.304316 C321.756582,265.45764 322.905695,266.184393 324.164201,266.11626 L326.806372,265.969132 C327.100056,265.95827 327.361218,266.058988 327.558322,266.256475 L328.921292,267.623086 C329.11741,267.818598 329.22286,268.090143 329.209063,268.367612 L329.086859,271.005051 C329.028713,272.254157 329.76588,273.411431 330.920906,273.884413 L333.296988,274.858024 C333.659658,275.006139 334.038097,275.077234 334.413579,275.077234 C335.239443,275.077234 336.048552,274.731632 336.620152,274.090787 L338.385213,272.114929 C338.571476,271.90658 338.839537,271.786113 339.119424,271.786113 L341.048081,271.786113 C341.325011,271.786113 341.591101,271.903618 341.776378,272.108017 L343.551294,274.060176 C344.390955,274.983428 345.731258,275.279659 346.880371,274.796803 L349.247584,273.801468 C350.398668,273.316637 351.124994,272.153439 351.056008,270.904333 L350.909165,268.258994 C350.893397,267.978562 350.997862,267.703068 351.196936,267.504594 L352.560892,266.136996 C352.756025,265.941484 353.029998,265.827929 353.302987,265.849652 L355.934317,265.972094 C357.180997,266.026403 358.337008,265.292739 358.809071,264.134477 L359.780791,261.753771 C360.252854,260.596497 359.945372,259.258522 359.015044,258.425127 Z M357.955613,261.006282 L356.984879,263.386989 C356.827196,263.773076 356.427076,264.033759 356.026956,263.999198 L353.39464,263.876756 C352.573704,263.844171 351.752768,264.153238 351.166385,264.74175 L349.803415,266.10836 C349.209148,266.703784 348.895754,267.526317 348.942073,268.367612 L349.088915,271.013938 C349.111582,271.430636 348.869145,271.818698 348.485779,271.97965 L346.117581,272.974985 C345.7352,273.134949 345.287776,273.037193 345.007889,272.730101 L343.233958,270.777941 C342.67517,270.163757 341.878872,269.811242 341.048081,269.811242 L339.119424,269.811242 C338.279763,269.811242 337.477552,270.170669 336.915807,270.79769 L335.14976,272.774535 C334.873816,273.08459 334.429347,273.188271 334.04401,273.029294 L331.667928,272.055683 C331.282591,271.89868 331.037197,271.512593 331.055922,271.095896 L331.178126,268.459443 C331.216561,267.62901 330.903167,266.815364 330.315799,266.226852 L328.951843,264.860242 C328.396997,264.304316 327.642091,263.992286 326.85959,263.992286 C326.806372,263.992286 326.751183,263.994261 326.69698,263.997224 L324.054808,264.144351 C323.617239,264.169037 323.251612,263.925141 323.090972,263.541029 L322.097571,261.169209 C321.936932,260.784109 322.036469,260.337789 322.342965,260.057357 L324.291332,258.278986 C324.904324,257.718123 325.256154,256.920275 325.256154,256.089842 L325.256154,254.156444 C325.256154,253.313174 324.89644,252.509402 324.270636,251.948539 L322.298617,250.18103 C321.989164,249.902573 321.885685,249.45724 322.044353,249.071153 L323.016073,246.689459 C323.17277,246.304359 323.593586,246.051576 323.97301,246.077249 L326.605327,246.200678 C327.4509,246.234251 328.246213,245.923209 328.832595,245.335685 L330.197537,243.969075 C330.792789,243.373651 331.106184,242.55013 331.057893,241.709823 L330.912037,239.062509 C330.888384,238.645811 331.130821,238.258737 331.514188,238.097785 L333.8814,237.10245 C334.262795,236.940511 334.709234,237.039254 334.991092,237.347334 L336.766009,239.299493 C337.323811,239.913678 338.121095,240.266193 338.951886,240.266193 L340.880543,240.266193 C341.721189,240.266193 342.524385,239.905779 343.083174,239.279745 L344.848235,237.302899 C345.123194,236.992845 345.571604,236.887189 345.954971,237.047154 L348.331053,238.020765 C348.717375,238.178754 348.962769,238.563854 348.943059,238.980552 L348.824797,241.531097 C348.788333,242.307221 349.053437,243.05471 349.568862,243.636309 L350.861861,245.093763 C351.464012,245.774106 352.336194,246.128596 353.235971,246.084161 L355.945158,245.933083 C356.375829,245.906423 356.747369,246.153281 356.908994,246.536406 L357.90141,248.909213 C358.062049,249.293325 357.963497,249.739646 357.656016,250.021065 L355.708634,251.798449 C355.095642,252.359312 354.742827,253.15716 354.742827,253.98858 L354.742827,255.920991 C354.742827,256.762286 355.101555,257.567045 355.728344,258.127909 L357.700364,259.896405 C358.010802,260.174862 358.113296,260.620195 357.955613,261.006282 Z M337.183769,247.023409 C336.861505,247.099442 336.543183,247.233733 336.261325,247.410484 C331.659946,250.313544 330.993736,254.943627 332.374446,258.243636 C333.523559,260.988706 336.319471,263.364475 340.273366,263.364475 C341.07262,263.364475 341.92115,263.266719 342.812058,263.055408 C343.134322,262.979375 343.452644,262.846072 343.733516,262.669321 C348.339824,259.766261 349.007019,255.13519 347.625324,251.833206 C346.242643,248.53221 342.480924,245.765417 337.183769,247.023409 Z"/></g></g><text x="0" y="56" fill="#000000" font-size="5px" font-weight="bold" font-family="'Helvetica Neue', Helvetica, Arial-Unicode, Arial, Sans-serif">Created by Michael Zenaty</text><text x="0" y="61" fill="#000000" font-size="5px" font-weight="bold" font-family="'Helvetica Neue', Helvetica, Arial-Unicode, Arial, Sans-serif">from the Noun Project</text></svg>